<!-- Generated by IcoMoon.io -->
<svg version="1.1" xmlns="http://www.w3.org/2000/svg" width="32" height="32" viewBox="0 0 32 32">
<title>favicon</title>
<path fill="#24369c" d="M28.413 29.746h-20.444c-1.606 0-2.921-1.314-2.921-2.921v-14.603c0-1.606 1.314-2.921 2.921-2.921h20.444c1.606 0 2.921 1.314 2.921 2.921v14.603c0 1.606-1.314 2.921-2.921 2.921z"></path>
<path fill="#4f66e6" d="M25.217 25.217h-21.482c-1.688 0-3.069-1.381-3.069-3.069v-15.344c0-1.688 1.381-3.069 3.069-3.069h21.482c1.688 0 3.069 1.381 3.069 3.069v15.344c0 1.688-1.381 3.069-3.069 3.069z"></path>
<path fill="#ecffc4" d="M20.381 12.286c1.21 0 2.19-0.981 2.19-2.19s-0.981-2.19-2.19-2.19c-1.21 0-2.19 0.981-2.19 2.19s0.981 2.19 2.19 2.19z"></path>
<path fill="#1a2562" d="M10.889 11.483l-6.571 9.565h13.143l-6.571-9.565z"></path>
<path fill="#3f51b5" d="M18.921 15.572l-4.381 5.476h8.762l-4.381-5.476z"></path>
</svg>
