<svg viewBox="0 0 18 18" xmlns="http://www.w3.org/2000/svg">
  <path
    d="M13.2658 12.0275C14.305 10.6878 14.7947 9.00257 14.6354 7.3146C14.4761 5.62662 13.6797 4.06273 12.4083 2.94109C11.1368 1.81945 9.48583 1.22431 7.79117 1.27675C6.0965 1.32919 4.48546 2.02527 3.28581 3.22338C2.0851 4.42232 1.38675 6.03398 1.33305 7.72993C1.27936 9.42589 1.87437 11.0785 2.99683 12.351C4.11929 13.6235 5.68472 14.4201 7.37412 14.5785C9.06351 14.7368 10.7497 14.2451 12.0891 13.2034L12.125 13.2409L15.66 16.7767C15.7374 16.8541 15.8293 16.9156 15.9305 16.9575C16.0316 16.9994 16.1401 17.0209 16.2496 17.0209C16.3591 17.0209 16.4675 16.9994 16.5686 16.9575C16.6698 16.9156 16.7617 16.8541 16.8391 16.7767C16.9166 16.6993 16.978 16.6074 17.0199 16.5062C17.0618 16.405 17.0834 16.2966 17.0834 16.1871C17.0834 16.0776 17.0618 15.9692 17.0199 15.868C16.978 15.7669 16.9166 15.675 16.8391 15.5975L13.3033 12.0625C13.2911 12.0505 13.2786 12.0389 13.2658 12.0275ZM11.5358 4.40255C12.0063 4.86545 12.3805 5.41692 12.6368 6.02516C12.8931 6.6334 13.0265 7.28637 13.0291 7.9464C13.0318 8.60643 12.9038 9.26046 12.6525 9.87076C12.4011 10.4811 12.0314 11.0356 11.5647 11.5023C11.098 11.969 10.5435 12.3387 9.93319 12.59C9.32288 12.8414 8.66885 12.9694 8.00882 12.9667C7.34879 12.964 6.69582 12.8307 6.08759 12.5744C5.47935 12.3181 4.92787 11.9439 4.46497 11.4734C3.5399 10.5331 3.02385 9.26541 3.02922 7.9464C3.03459 6.62738 3.56095 5.36391 4.49365 4.43122C5.42634 3.49853 6.6898 2.97217 8.00882 2.9668C9.32784 2.96143 10.5955 3.47748 11.5358 4.40255Z"
  />
</svg>