<svg width="368" height="200" viewBox="0 0 368 200" fill="none" xmlns="http://www.w3.org/2000/svg">
<g filter="url(#filter0_d_2031_178)">
<path d="M5 191.5H361" stroke="#3F51B5" stroke-width="3" stroke-linecap="round"/>
<path d="M307 191.5H309.514L308.32 189.287C290.368 156.038 241.802 70.255 233.79 56.7353C233.752 56.6698 233.713 56.6043 233.675 56.5395C233.516 56.2704 233.365 56.0135 233.236 55.8179C233.153 55.6927 233.047 55.5409 232.921 55.3995C232.807 55.2722 232.583 55.0442 232.241 54.8976C231.823 54.7188 231.347 54.7115 230.912 54.9014C230.555 55.0572 230.329 55.3017 230.217 55.4356C230.001 55.6934 229.815 56.0374 229.683 56.2828L229.681 56.2863L229.681 56.2864C220.712 72.8685 213.963 85.2412 209.457 93.4677C207.204 97.581 205.511 100.658 204.382 102.706C203.818 103.73 203.394 104.497 203.112 105.008L202.794 105.582L202.715 105.725L202.695 105.761L202.69 105.769L202.689 105.772L202.688 105.772C202.688 105.772 202.688 105.772 204 106.5L202.688 105.772L202.274 106.519L202.705 107.256L251.468 190.756L251.902 191.5H252.763H307Z" fill="#A8CBEC"/>
<path d="M307 191.5H309.514L308.32 189.287C290.368 156.038 241.802 70.255 233.79 56.7353C233.752 56.6698 233.713 56.6043 233.675 56.5395C233.516 56.2704 233.365 56.0135 233.236 55.8179C233.153 55.6927 233.047 55.5409 232.921 55.3995C232.807 55.2722 232.583 55.0442 232.241 54.8976C231.823 54.7188 231.347 54.7115 230.912 54.9014C230.555 55.0572 230.329 55.3017 230.217 55.4356C230.001 55.6934 229.815 56.0374 229.683 56.2828L229.681 56.2863L229.681 56.2864C220.712 72.8685 213.963 85.2412 209.457 93.4677C207.204 97.581 205.511 100.658 204.382 102.706C203.818 103.73 203.394 104.497 203.112 105.008L202.794 105.582L202.715 105.725L202.695 105.761L202.69 105.769L202.689 105.772L202.688 105.772C202.688 105.772 202.688 105.772 204 106.5L202.688 105.772L202.274 106.519L202.705 107.256L251.468 190.756L251.902 191.5H252.763H307Z" stroke="#3F51B5" stroke-width="3"/>
<path d="M307 191.5H309.514L308.32 189.287C290.368 156.038 241.802 70.255 233.79 56.7353C233.752 56.6698 233.713 56.6043 233.675 56.5395C233.516 56.2704 233.365 56.0135 233.236 55.8179C233.153 55.6927 233.047 55.5409 232.921 55.3995C232.807 55.2722 232.583 55.0442 232.241 54.8976C231.823 54.7188 231.347 54.7115 230.912 54.9014C230.555 55.0572 230.329 55.3017 230.217 55.4356C230.001 55.6934 229.815 56.0374 229.683 56.2828L229.681 56.2863L229.681 56.2864C220.712 72.8685 213.963 85.2412 209.457 93.4677C207.204 97.581 205.511 100.658 204.382 102.706C203.818 103.73 203.394 104.497 203.112 105.008L202.794 105.582L202.715 105.725L202.695 105.761L202.69 105.769L202.689 105.772L202.688 105.772C202.688 105.772 202.688 105.772 204 106.5L202.688 105.772L202.274 106.519L202.705 107.256L251.468 190.756L251.902 191.5H252.763H307Z" stroke="#3F51B5" stroke-width="3"/>
<path d="M252.232 92.6604C251.722 93.1035 251.181 93.5794 250.675 94.1083L244.521 90.5885L242.95 89.6898V91.5V101.507L239.542 99.169L238.786 98.6508L238.171 99.3291L236.894 100.735L231.492 85.156L230.798 83.153L229.625 84.9193L227.928 87.4764L225.396 83.7568L223.969 81.6606L223.496 84.1519L224.528 84.3476L223.496 84.152L223.496 84.1524L223.496 84.1542L223.494 84.1615L223.489 84.1909L223.467 84.3066C223.447 84.408 223.418 84.5569 223.382 84.7461C223.308 85.1245 223.201 85.6639 223.072 86.3067C222.811 87.5932 222.458 89.29 222.081 90.9384C221.783 92.2422 221.476 93.4965 221.192 94.4892C220.959 93.9296 220.713 93.3204 220.477 92.7293C220.194 92.0162 219.933 91.3478 219.744 90.8574C219.649 90.6124 219.572 90.412 219.519 90.2731L219.48 90.1707L219.041 86.8618L218.751 84.6787L217.237 86.278L214.05 89.6454L213.451 88.7653L213.373 88.6495L213.266 88.5584L212.328 87.7545L230.188 54.8324C230.188 54.832 230.188 54.8316 230.188 54.8311C230.618 54.0439 231.187 53.7863 231.627 53.7863C232.069 53.7863 232.642 54.0449 233.078 54.8335C237.12 62.3203 241.454 69.8768 245.804 77.4616C248.452 82.0792 251.107 86.7073 253.705 91.3366C253.3 91.7336 252.857 92.1182 252.384 92.5288C252.333 92.5723 252.283 92.6162 252.232 92.6604Z" fill="white" stroke="#3F51B5" stroke-width="2.1"/>
<path d="M304.329 86.5301C303.724 86.2686 303.333 85.6727 303.334 85.014C303.337 82.0382 302.266 79.1613 300.317 76.9124C298.368 74.6635 295.673 73.1939 292.727 72.7737C289.781 72.3536 286.782 73.0113 284.282 74.6257C282.022 76.0856 281.514 77.6914 280.571 80.9444C280.571 80.9445 280.571 80.9445 280.571 80.9446L280.567 80.9594C280.383 81.5935 279.839 82.0569 279.184 82.1376C277.914 82.2939 276.291 82.8367 274.734 83.6435C273.169 84.4536 271.832 85.4467 271.044 86.393C269.359 88.4182 268.51 91.0096 268.669 93.6392C268.828 96.2689 269.983 98.739 271.9 100.546C273.816 102.353 276.349 103.362 278.983 103.367C278.983 103.367 278.984 103.367 278.985 103.367L300.984 103.367H300.985C302.906 103.368 304.769 102.707 306.259 101.495C307.749 100.282 308.776 98.5929 309.166 96.7117C309.556 94.8305 309.286 92.8724 308.4 91.1674C307.909 90.2212 307.28 89.2114 306.556 88.3508C305.821 87.4776 305.061 86.847 304.329 86.5301Z" stroke="#3F51B5" stroke-width="3.3" stroke-linejoin="round"/>
<mask id="path-5-inside-1_2031_178" fill="white">
<path d="M151.594 36.8686C121.081 88.8904 90.5562 140.9 60 193L256 193C225.447 140.9 195.087 88.8904 164.559 36.8686C161.741 32.1311 154.391 32.1311 151.559 36.8686"/>
</mask>
<path d="M151.594 36.8686C121.081 88.8904 90.5562 140.9 60 193L256 193C225.447 140.9 195.087 88.8904 164.559 36.8686C161.741 32.1311 154.391 32.1311 151.559 36.8686" fill="#9BAED2"/>
<path d="M60 193L57.4122 191.482L54.7626 196L60 196L60 193ZM256 193L256 196L261.237 196L258.588 191.482L256 193ZM164.559 36.8686L167.147 35.3502L167.142 35.3424L167.138 35.3346L164.559 36.8686ZM149.006 35.3508C118.495 87.3696 87.9673 139.384 57.4122 191.482L62.5878 194.518C93.1452 142.415 123.667 90.4113 154.181 38.3863L149.006 35.3508ZM60 196L256 196L256 190L60 190L60 196ZM258.588 191.482C228.045 139.399 197.669 87.3625 167.147 35.3502L161.972 38.3869C192.506 90.4184 222.849 142.401 253.412 194.518L258.588 191.482ZM167.138 35.3346C163.153 28.6381 152.977 28.6484 148.984 35.3296L154.135 38.4075C155.804 35.6137 160.328 35.624 161.981 38.4025L167.138 35.3346Z" fill="#3F51B5" mask="url(#path-5-inside-1_2031_178)"/>
<path d="M60 193L57.4122 191.482L54.7626 196L60 196L60 193ZM256 193L256 196L261.237 196L258.588 191.482L256 193ZM164.559 36.8686L167.147 35.3502L167.142 35.3424L167.138 35.3346L164.559 36.8686ZM149.006 35.3508C118.495 87.3696 87.9673 139.384 57.4122 191.482L62.5878 194.518C93.1452 142.415 123.667 90.4113 154.181 38.3863L149.006 35.3508ZM60 196L256 196L256 190L60 190L60 196ZM258.588 191.482C228.045 139.399 197.669 87.3625 167.147 35.3502L161.972 38.3869C192.506 90.4184 222.849 142.401 253.412 194.518L258.588 191.482ZM167.138 35.3346C163.153 28.6381 152.977 28.6484 148.984 35.3296L154.135 38.4075C155.804 35.6137 160.328 35.624 161.981 38.4025L167.138 35.3346Z" fill="#3F51B5" mask="url(#path-5-inside-1_2031_178)"/>
<path d="M177.214 81.5167L178.369 81.9932L177.214 81.5167L177.213 81.5169L177.213 81.5177L177.212 81.5213L177.206 81.5357L177.182 81.5928L177.091 81.8126C177.012 82.0032 176.897 82.278 176.756 82.6142C176.474 83.2867 176.087 84.2037 175.664 85.1826C175.189 86.2822 174.682 87.4316 174.234 88.3972C173.741 86.9427 173.181 84.8752 172.643 82.7114C172.081 80.4496 171.553 78.122 171.165 76.3574C170.971 75.4757 170.813 74.7359 170.703 74.2169C170.648 73.9573 170.605 73.7531 170.576 73.6139L170.543 73.4553L170.534 73.4149L170.532 73.4049L170.532 73.4024L170.532 73.4019C170.532 73.4018 170.532 73.4017 169.307 73.6541L170.532 73.4017L169.967 70.6647L168.303 72.9097L164.712 77.7545L163.433 73.3087L162.462 69.9306L161.082 73.1635L151.049 96.6738L148.682 94.2769L147.429 93.0084L146.664 94.6184L144.563 99.0365L137.929 80.1129L137.19 78.0074L135.78 79.7364L129.915 86.9278C128.656 85.5224 127.371 84.1401 126.06 82.7817C133.198 70.6541 140.337 58.5184 147.473 46.3868C150.071 41.9706 152.669 37.5549 155.266 33.1404C156.541 31.036 159.882 31.0456 161.136 33.1382C165.68 40.8582 170.1 48.4869 174.523 56.1215L174.659 56.3553C178.884 63.6495 183.114 70.9499 187.453 78.3351L186.213 79.6823L186.167 79.7327L186.126 79.7879L185.118 81.1584L181.977 77.2207L180.904 75.8746L179.956 77.3124L177.325 81.3055L177.259 81.4057L177.214 81.5167Z" fill="white" stroke="#3F51B5" stroke-width="2.5"/>
<path d="M355.813 180.064L355.698 180.162L355.604 180.28C354.587 181.569 353.25 182.421 351.813 182.75L350.648 183.017V184.212V190.101C350.648 190.259 350.59 190.381 350.532 190.446C350.505 190.477 350.482 190.49 350.471 190.495C350.465 190.498 350.461 190.499 350.459 190.5C350.457 190.5 350.457 190.5 350.456 190.5C350.456 190.5 350.455 190.5 350.453 190.5C350.452 190.499 350.451 190.499 350.449 190.498C350.447 190.498 350.445 190.497 350.442 190.495C350.43 190.49 350.408 190.477 350.381 190.446C350.323 190.381 350.265 190.259 350.265 190.101V184.212V183.018L349.101 182.75C347.57 182.399 346.156 181.456 345.12 180.03C344.082 178.603 343.5 176.793 343.5 174.905C343.5 174.905 343.5 174.905 343.5 174.905L343.5 163.509L343.5 163.507C343.498 161.397 344.222 159.394 345.482 157.911C346.738 156.434 348.416 155.596 350.149 155.508C351.881 155.42 353.609 156.082 354.969 157.415C356.33 158.75 357.21 160.655 357.382 162.749L357.383 162.772L357.39 162.902C357.395 163.017 357.403 163.186 357.412 163.404C357.43 163.84 357.452 164.468 357.47 165.23C357.506 166.755 357.522 168.808 357.447 170.932C357.372 173.066 357.206 175.226 356.889 176.98C356.73 177.859 356.541 178.592 356.326 179.152C356.1 179.741 355.9 179.99 355.813 180.064ZM350.648 180.281V182.491L352.701 181.675C354.007 181.156 355.106 180.208 355.869 178.996C356.631 177.785 357.03 176.356 357.03 174.905C357.03 174.905 357.03 174.905 357.03 174.905V163.509C357.03 161.652 356.375 159.842 355.164 158.482C353.948 157.117 352.26 156.311 350.456 156.311C348.653 156.311 346.964 157.117 345.748 158.482C344.538 159.842 343.883 161.652 343.883 163.509V174.905C343.883 174.905 343.883 174.905 343.883 174.905C343.882 176.356 344.282 177.785 345.044 178.996C345.806 180.208 346.905 181.156 348.211 181.675L350.265 182.491V180.281V174.905C350.265 174.747 350.323 174.625 350.381 174.56C350.408 174.529 350.43 174.516 350.442 174.511C350.448 174.508 350.451 174.507 350.453 174.506C350.455 174.506 350.456 174.506 350.456 174.506C350.457 174.506 350.457 174.506 350.459 174.506C350.461 174.507 350.465 174.508 350.471 174.511C350.482 174.516 350.505 174.529 350.532 174.56C350.59 174.625 350.648 174.747 350.648 174.905V180.281Z" fill="#3F51B5" stroke="#3F51B5" stroke-width="3"/>
<path d="M274.314 154.23H274.316C276.061 154.23 277.856 155.15 279.258 157.015C280.666 158.887 281.5 161.498 281.5 164.28V173.52L281.5 173.52C281.5 175.935 280.871 178.239 279.765 180.042C278.658 181.845 277.184 182.978 275.66 183.391L274.553 183.692V184.839V189.69C274.553 190.022 274.45 190.282 274.345 190.422C274.335 190.436 274.325 190.448 274.316 190.458C274.307 190.448 274.297 190.436 274.287 190.422C274.181 190.282 274.079 190.022 274.079 189.69V184.839V183.699L272.981 183.394C272.087 183.145 271.208 182.649 270.404 181.903C269.599 181.155 268.892 180.174 268.345 179.005L267.402 176.994L265.889 178.619C264.668 179.93 263.262 180.758 261.821 181.091L260.658 181.359V182.552V189.69C260.658 190.022 260.555 190.282 260.45 190.422C260.44 190.436 260.43 190.448 260.421 190.458C260.412 190.448 260.402 190.436 260.392 190.422C260.287 190.282 260.184 190.022 260.184 189.69V182.552V181.352L259.013 181.089C257.046 180.646 255.151 179.265 253.731 177.033C252.31 174.8 251.502 171.919 251.5 168.9V159.668C251.533 156.75 252.317 153.972 253.678 151.795C255.039 149.617 256.854 148.228 258.755 147.721C260.634 147.218 262.609 147.572 264.385 148.804C266.18 150.05 267.679 152.137 268.548 154.791L269.22 156.842L270.908 155.498C271.981 154.643 273.158 154.229 274.314 154.23ZM267.004 175.638L267.289 175.186L267.225 174.656C267.178 174.271 267.147 173.882 267.132 173.491L267.132 164.282C267.132 164.281 267.132 164.281 267.132 164.28C267.134 162.157 267.624 160.11 268.508 158.413L268.733 157.98L268.661 157.498C268.368 155.538 267.645 153.694 266.541 152.206L266.541 152.206L266.536 152.199C265.394 150.679 263.883 149.572 262.157 149.116C260.417 148.657 258.622 148.904 257.028 149.785C255.448 150.659 254.167 152.096 253.294 153.844C252.42 155.592 251.969 157.616 251.974 159.662L251.974 168.9L251.974 168.904C251.979 171.186 252.552 173.434 253.64 175.297C254.729 177.159 256.308 178.587 258.197 179.235L260.184 179.918V177.817V171.21C260.184 170.878 260.287 170.618 260.392 170.478C260.402 170.464 260.412 170.452 260.421 170.442C260.43 170.452 260.44 170.464 260.45 170.478C260.555 170.618 260.658 170.878 260.658 171.21V177.84V179.943L262.647 179.258C264.422 178.646 265.927 177.344 267.004 175.638ZM281.026 173.523V173.52V164.28C281.026 162.161 280.397 160.071 279.199 158.478C277.995 156.877 276.256 155.85 274.316 155.85C272.376 155.85 270.636 156.877 269.432 158.478C268.235 160.071 267.605 162.161 267.605 164.28L267.605 173.52L267.605 173.523C267.609 175.178 267.996 176.815 268.742 178.215C269.488 179.614 270.584 180.754 271.941 181.392L274.079 182.397V180.034V171.21C274.079 170.878 274.181 170.618 274.287 170.478C274.297 170.464 274.307 170.452 274.316 170.442C274.325 170.452 274.335 170.464 274.345 170.478C274.45 170.618 274.553 170.878 274.553 171.21V180.034V182.397L276.691 181.392C278.047 180.754 279.144 179.614 279.89 178.215C280.636 176.815 281.023 175.178 281.026 173.523Z" fill="#3F51B5" stroke="#3F51B5" stroke-width="3"/>
<path d="M157.156 144.84H157.158C159.799 144.84 162.405 146.106 164.376 148.488C166.354 150.878 167.5 154.171 167.5 157.651V169.101V169.101C167.501 172.123 166.635 175.025 165.089 177.315C163.543 179.602 161.437 181.11 159.167 181.67L158.026 181.952V183.127V189.138C158.026 189.581 157.878 189.962 157.677 190.205C157.483 190.44 157.287 190.5 157.158 190.5C157.029 190.5 156.833 190.44 156.639 190.205C156.438 189.962 156.289 189.581 156.289 189.138V183.127V181.959L155.157 181.672C153.827 181.336 152.547 180.673 151.399 179.703C150.25 178.733 149.258 177.477 148.496 175.999L147.567 174.196L146.116 175.613C144.397 177.289 142.382 178.382 140.271 178.825L139.079 179.075V180.293V189.138C139.079 189.581 138.931 189.962 138.73 190.205C138.535 190.44 138.339 190.5 138.211 190.5C138.082 190.5 137.886 190.44 137.691 190.205C137.49 189.962 137.342 189.581 137.342 189.138V180.293V179.068L136.142 178.823C133.256 178.234 130.566 176.414 128.591 173.591C126.613 170.766 125.503 167.147 125.5 163.376V151.936C125.545 148.289 126.623 144.8 128.517 142.046C130.41 139.293 132.982 137.47 135.764 136.794C138.537 136.121 141.43 136.608 143.982 138.216C146.544 139.832 148.627 142.498 149.826 145.823L150.502 147.698L152.116 146.53C153.665 145.409 155.407 144.838 157.156 144.84ZM146.69 171.588L147.022 171.111L146.945 170.534C146.88 170.049 146.837 169.56 146.816 169.069L146.816 157.653C146.816 157.653 146.816 157.652 146.816 157.652C146.819 154.993 147.493 152.417 148.725 150.268L148.99 149.806L148.904 149.279C148.509 146.878 147.537 144.639 146.075 142.849L146.075 142.849L146.069 142.842C144.558 141.013 142.594 139.725 140.405 139.2C138.21 138.674 135.941 138.951 133.9 139.977C131.866 140.999 130.175 142.703 129.007 144.827C127.839 146.95 127.23 149.421 127.237 151.929L127.237 163.376L127.237 163.38C127.244 166.179 128.018 168.921 129.469 171.176C130.921 173.434 132.991 175.107 135.395 175.857L137.342 176.464V174.425V166.239C137.342 165.795 137.49 165.414 137.691 165.171C137.886 164.936 138.082 164.876 138.211 164.876C138.339 164.876 138.535 164.936 138.73 165.171C138.931 165.414 139.079 165.795 139.079 166.239V174.454V176.495L141.027 175.885C143.287 175.177 145.255 173.653 146.69 171.588ZM165.763 169.104V169.101V157.651C165.763 155.058 164.913 152.527 163.338 150.623C161.755 148.711 159.542 147.564 157.158 147.564C154.774 147.564 152.56 148.711 150.978 150.623C149.403 152.527 148.553 155.058 148.553 157.651L148.553 169.101L148.553 169.104C148.557 171.126 149.078 173.116 150.069 174.804C151.059 176.492 152.489 177.821 154.2 178.552L156.289 179.445V177.173V166.239C156.289 165.795 156.438 165.414 156.639 165.171C156.833 164.936 157.029 164.876 157.158 164.876C157.287 164.876 157.483 164.936 157.677 165.171C157.878 165.414 158.026 165.795 158.026 166.239V177.173V179.445L160.116 178.552C161.827 177.821 163.256 176.492 164.247 174.804C165.238 173.116 165.758 171.126 165.763 169.104Z" stroke="#3F51B5" stroke-width="3"/>
<path fill-rule="evenodd" clip-rule="evenodd" d="M55.6505 177.125C53.7899 179.224 51.2979 180.662 48.5496 181.223V189.257C48.5496 189.944 48.2765 190.603 47.7905 191.089C47.3045 191.575 46.6453 191.848 45.958 191.848C45.2706 191.848 44.6114 191.575 44.1254 191.089C43.6394 190.603 43.3664 189.944 43.3664 189.257V181.223C40.44 180.624 37.81 179.034 35.9211 176.72C34.0322 174.406 33.0004 171.511 33 168.524V152.974C32.9958 149.636 34.2797 146.426 36.5842 144.011C38.8887 141.597 42.0361 140.165 45.3704 140.013C48.7047 139.862 51.9688 141.003 54.4826 143.199C56.9964 145.395 58.5659 148.476 58.8641 151.8C58.8641 151.8 60.2117 173.691 55.6505 177.125ZM53.7327 152.974V168.524C53.7332 170.132 53.235 171.701 52.3067 173.015C51.3785 174.328 50.0658 175.321 48.5496 175.858V168.524C48.5496 167.836 48.2765 167.177 47.7905 166.691C47.3045 166.205 46.6453 165.932 45.958 165.932C45.2706 165.932 44.6114 166.205 44.1254 166.691C43.6394 167.177 43.3664 167.836 43.3664 168.524V175.858C41.8501 175.321 40.5374 174.328 39.6092 173.015C38.6809 171.701 38.1827 170.132 38.1832 168.524V152.974C38.1832 150.912 39.0023 148.935 40.4604 147.477C41.9184 146.019 43.896 145.199 45.958 145.199C48.02 145.199 49.9975 146.019 51.4556 147.477C52.9136 148.935 53.7327 150.912 53.7327 152.974Z" fill="#3F51B5"/>
<path d="M209.169 2.50879C237.942 2.50879 261.599 24.9382 261.599 54.0615C261.599 64.3815 258.68 74.0069 253.635 82.1389C253.225 81.3659 252.723 80.4203 252.153 79.346C250.543 76.314 248.386 72.2555 246.197 68.15C244.008 64.0448 241.787 59.8909 240.049 56.6686C239.18 55.0578 238.43 53.6771 237.865 52.6506C237.324 51.6666 236.905 50.92 236.729 50.6601C236.123 49.7636 235.384 49.0171 234.446 48.5373C233.496 48.0515 232.456 47.8975 231.351 48.0074C229.273 48.2142 228.072 49.4865 227.191 50.5353C227.086 50.66 226.982 50.8264 226.924 50.917C226.844 51.0441 226.745 51.2075 226.629 51.4003C226.398 51.7872 226.087 52.3188 225.711 52.9704C224.957 54.275 223.929 56.0803 222.721 58.2141C220.304 62.4829 217.161 68.0791 214.046 73.6421C210.931 79.2055 207.842 84.7376 205.531 88.8786C204.5 90.7277 203.623 92.2995 202.969 93.473L164.72 27.9701C173.425 12.1042 189.484 2.50879 209.169 2.50879Z" fill="#789ADB" fill-opacity="0.8" stroke="#3F51B5" stroke-width="3"/>
<g opacity="0.9">
<path d="M55.9312 94.2706C56.0984 94.8469 56.5929 95.2682 57.1885 95.3415C59.2898 95.6003 61.2135 96.6504 62.5676 98.278C63.9216 99.9055 64.6043 101.988 64.4765 104.101C64.3487 106.215 63.4201 108.2 61.8798 109.652C60.3397 111.105 58.304 111.915 56.1872 111.919C56.1868 111.919 56.1865 111.919 56.1861 111.919L38.1883 111.919H38.1875C36.6502 111.92 35.1596 111.391 33.967 110.421C32.7745 109.451 31.9529 108.099 31.6409 106.594C31.3288 105.088 31.5453 103.522 32.2539 102.157C32.9624 100.793 34.1198 99.7149 35.5307 99.1045C36.0943 98.8607 36.4524 98.2979 36.4345 97.684L36.4155 97.0333C36.4179 94.642 37.281 92.3313 38.8473 90.5238C40.4181 88.7113 42.5904 87.5267 44.9649 87.1881C47.3394 86.8495 49.7563 87.3796 51.7711 88.6808C53.7859 89.982 55.2632 91.967 55.9312 94.2706Z" stroke="#3F51B5" stroke-width="3" stroke-linejoin="round"/>
<path d="M319.706 17.8017C319.784 18.4178 320.234 18.922 320.837 19.0697C322.165 19.3951 323.347 20.1563 324.192 21.2317C325.037 22.3066 325.497 23.6334 325.5 25.0005C325.5 28.3633 322.763 31.1 319.4 31.1H298.5C294.09 31.1 290.5 27.5099 290.5 23.1C290.5 19.6759 293.068 16.3683 296.568 15.3222C296.993 15.195 297.34 14.8859 297.516 14.4781C299.362 10.1909 303.377 7.5 308 7.5C313.998 7.5 318.969 12.0012 319.706 17.8017Z" stroke="#3F51B5" stroke-width="3" stroke-linejoin="round"/>
<path d="M67.2529 33.5861C67.2344 33.7798 67.1494 33.9611 67.0123 34.0992C66.8752 34.2372 66.6945 34.3235 66.5009 34.3433C61.6966 34.8568 58 39.5841 58 45.3384C58 51.4363 62.2329 56.3791 67.4527 56.3791H103.495C109.23 56.3791 113.88 51.1558 113.88 44.7109C113.88 38.5359 109.61 33.4827 104.205 33.0725C104.006 33.0612 103.816 32.9836 103.666 32.8521C103.516 32.7206 103.415 32.5428 103.377 32.3469C102.17 26.1526 96.6012 21.4972 90.0161 21.4972C87.9913 21.4869 85.9901 21.9322 84.1609 22.8003C82.3316 23.6684 80.7211 24.9369 79.4486 26.5119C79.3345 26.6616 79.1752 26.7705 78.9943 26.8226C78.8134 26.8747 78.6206 26.8672 78.4443 26.8011C77.4661 26.3988 76.417 26.1973 75.3594 26.2087C71.1054 26.2087 67.6139 29.4496 67.2529 33.5861Z" stroke="#3F51B5" stroke-width="3.49906" stroke-linecap="round" stroke-linejoin="round"/>
</g>
</g>
<defs>
<filter id="filter0_d_2031_178" x="0" y="0" width="368" height="200" filterUnits="userSpaceOnUse" color-interpolation-filters="sRGB">
<feFlood flood-opacity="0" result="BackgroundImageFix"/>
<feColorMatrix in="SourceAlpha" type="matrix" values="0 0 0 0 0 0 0 0 0 0 0 0 0 0 0 0 0 0 127 0" result="hardAlpha"/>
<feOffset dx="1" dy="3"/>
<feGaussianBlur stdDeviation="2"/>
<feComposite in2="hardAlpha" operator="out"/>
<feColorMatrix type="matrix" values="0 0 0 0 0 0 0 0 0 0 0 0 0 0 0 0 0 0 0.15 0"/>
<feBlend mode="normal" in2="BackgroundImageFix" result="effect1_dropShadow_2031_178"/>
<feBlend mode="normal" in="SourceGraphic" in2="effect1_dropShadow_2031_178" result="shape"/>
</filter>
</defs>
</svg>
